<?xml version="1.0" encoding="iso-8859-1"?>
<!-- Generator: Adobe Illustrator 19.0.0, SVG Export Plug-In . SVG Version: 6.00 Build 0)  -->
<svg version="1.1" id="Layer_1" xmlns="http://www.w3.org/2000/svg" xmlns:xlink="http://www.w3.org/1999/xlink" x="0px" y="0px"
	 viewBox="0 0 297.002 297.002" style="enable-background:new 0 0 297.002 297.002;" xml:space="preserve" width="1000px" height="1000px">
<g>
	<g>
		<g>
			<path d="M272.237,123.737c-10.349,0-19.231,6.384-22.927,15.418h-38.585c-1.563-10.519-5.72-20.202-11.802-28.374l21.369-21.369
				c2.797,1.108,5.764,1.666,8.733,1.666c6.049,0,12.1-2.303,16.705-6.908c9.211-9.211,9.211-24.199,0-33.41
				c-9.211-9.21-24.199-9.21-33.41,0h-0.001c-6.865,6.865-8.61,16.937-5.242,25.437l-21.389,21.389
				c-8.143-6.026-17.773-10.147-28.232-11.701V48.079c9.035-3.696,15.418-12.577,15.418-22.926
				c0-13.655-11.108-24.763-24.763-24.763c-13.655,0-24.763,11.108-24.763,24.763c0,10.349,6.384,19.231,15.418,22.926v37.807
				c-10.393,1.544-19.965,5.626-28.075,11.589L89.413,76.198c3.368-8.5,1.623-18.572-5.242-25.437
				c-9.211-9.211-24.199-9.211-33.41,0s-9.211,24.199,0,33.41c4.606,4.606,10.656,6.908,16.705,6.908
				c2.968,0,5.934-0.558,8.732-1.666l21.213,21.213c-6.145,8.204-10.341,17.945-11.914,28.53H47.69
				c-3.696-9.035-12.577-15.418-22.927-15.418C11.108,123.737,0,134.845,0,148.5c0,13.655,11.108,24.763,24.763,24.763
				c10.349,0,19.231-6.384,22.927-15.418h37.807c1.554,10.459,5.676,20.09,11.701,28.233l-21,21
				c-8.5-3.368-18.572-1.623-25.437,5.242c-9.211,9.211-9.211,24.199,0,33.41c4.606,4.606,10.656,6.908,16.705,6.908
				s12.1-2.302,16.705-6.908c6.865-6.865,8.61-16.937,5.242-25.437l20.98-20.98c8.172,6.082,17.855,10.239,28.373,11.802v37.807
				c-9.035,3.696-15.418,12.577-15.418,22.926c0,13.655,11.108,24.763,24.763,24.763c13.655,0,24.763-11.108,24.763-24.763
				c0-10.349-6.384-19.231-15.418-22.926v-37.807c10.585-1.573,20.325-5.77,28.53-11.914l21.602,21.602
				c-3.368,8.5-1.623,18.572,5.242,25.437c4.606,4.606,10.656,6.908,16.705,6.908c6.049,0,12.1-2.302,16.705-6.908
				c9.211-9.211,9.211-24.199,0-33.409c-4.461-4.463-10.394-6.921-16.705-6.921c-3.043,0-5.995,0.577-8.74,1.669l-21.658-21.658
				c5.964-8.11,10.045-17.683,11.59-28.075h38.585c3.696,9.035,12.577,15.418,22.927,15.418c13.655,0,24.763-11.108,24.763-24.763
				C297.002,134.846,285.892,123.737,272.237,123.737z M225.534,63.976c1.925-1.924,5.056-1.924,6.98,0
				c0.933,0.932,1.445,2.171,1.445,3.49c0,1.319-0.513,2.558-1.445,3.49c-1.924,1.925-5.056,1.924-6.98,0
				C223.61,69.031,223.61,65.899,225.534,63.976z M70.956,70.955c-1.924,1.925-5.056,1.925-6.98,0c-1.925-1.924-1.925-5.056,0-6.979
				c0.962-0.963,2.226-1.444,3.49-1.444s2.528,0.481,3.49,1.444C72.881,65.901,72.881,69.032,70.956,70.955z M24.763,154.574
				c-3.349,0-6.074-2.725-6.074-6.074s2.725-6.074,6.074-6.074s6.074,2.725,6.074,6.074S28.112,154.574,24.763,154.574z
				 M70.955,232.514c-1.924,1.925-5.056,1.925-6.979,0c-1.925-1.924-1.925-5.056,0-6.979c0.962-0.963,2.226-1.444,3.49-1.444
				s2.528,0.481,3.49,1.444C72.88,227.459,72.88,230.59,70.955,232.514z M148.111,19.078c3.349,0,6.074,2.725,6.074,6.074
				s-2.725,6.074-6.074,6.074s-6.074-2.725-6.074-6.074S144.762,19.078,148.111,19.078z M148.111,277.922
				c-3.349,0-6.074-2.725-6.074-6.074s2.725-6.074,6.074-6.074s6.074,2.725,6.074,6.074S151.46,277.922,148.111,277.922z
				 M148.111,193.12c-24.603,0-44.62-20.017-44.62-44.62c0-24.603,20.016-44.62,44.62-44.62c24.603,0,44.62,20.017,44.62,44.62
				C192.731,173.103,172.714,193.12,148.111,193.12z M226.045,226.044c0.932-0.933,2.171-1.445,3.49-1.445
				c1.317,0,2.556,0.513,3.489,1.446c1.925,1.924,1.925,5.056,0,6.979c-1.924,1.925-5.056,1.925-6.979,0
				C224.12,231.099,224.12,227.969,226.045,226.044z M272.237,154.574c-3.349,0-6.074-2.725-6.074-6.074s2.725-6.074,6.074-6.074
				s6.074,2.725,6.074,6.074S275.586,154.574,272.237,154.574z"/>
			<path d="M145.725,143.836c6.557-6.558,6.557-17.229-0.001-23.787c-6.558-6.556-17.229-6.556-23.787,0v0.001
				c-6.559,6.558-6.559,17.229-0.001,23.787c3.178,3.176,7.402,4.926,11.895,4.926C138.323,148.763,142.548,147.014,145.725,143.836
				z M128.224,131.943c0-1.497,0.584-2.906,1.642-3.965c2.186-2.186,5.745-2.185,7.929,0c2.186,2.186,2.186,5.744,0.001,7.93
				c-1.059,1.059-2.468,1.642-3.965,1.642c-1.497,0-2.906-0.583-3.965-1.642C128.807,134.849,128.224,133.44,128.224,131.943z"/>
			<path d="M132.012,156.23c-6.559,6.558-6.559,17.229,0,23.787c3.279,3.28,7.586,4.919,11.893,4.919s8.614-1.639,11.893-4.919
				c6.559-6.558,6.559-17.229,0-23.787C149.241,149.672,138.57,149.672,132.012,156.23z M147.871,172.089
				c-2.186,2.185-5.744,2.185-7.93,0c-2.186-2.186-2.186-5.744,0-7.93c1.093-1.092,2.53-1.639,3.965-1.639s2.872,0.547,3.965,1.639
				C150.056,166.345,150.056,169.902,147.871,172.089z"/>
		</g>
	</g>
</g>
<g>
</g>
<g>
</g>
<g>
</g>
<g>
</g>
<g>
</g>
<g>
</g>
<g>
</g>
<g>
</g>
<g>
</g>
<g>
</g>
<g>
</g>
<g>
</g>
<g>
</g>
<g>
</g>
<g>
</g>
</svg>
