<?xml version="1.0" standalone="no"?>
<!DOCTYPE svg PUBLIC "-//W3C//DTD SVG 20010904//EN"
 "http://www.w3.org/TR/2001/REC-SVG-20010904/DTD/svg10.dtd">
<svg version="1.0" xmlns="http://www.w3.org/2000/svg"
 width="591.000000pt" height="591.000000pt" viewBox="0 0 591.000000 591.000000"
 preserveAspectRatio="xMidYMid meet">
<metadata>
Created by potrace 1.14, written by Peter Selinger 2001-2017
</metadata>
<g transform="translate(0.000000,591.000000) scale(0.100000,-0.100000)"
fill="#000000" stroke="none">
<path d="M724 5290 c-53 -35 -56 -63 -51 -486 4 -367 6 -408 22 -447 4 -10 9
-26 9 -35 4 -33 67 -160 105 -212 48 -66 159 -165 217 -195 33 -16 61 -33 64
-36 3 -3 55 -25 115 -49 61 -24 114 -47 119 -52 6 -4 18 -8 28 -8 10 0 18 -4
18 -10 0 -5 3 -9 8 -8 7 3 165 -61 277 -111 33 -15 79 -33 102 -41 23 -7 40
-17 36 -23 -3 -6 -2 -7 3 -4 6 3 37 -6 69 -19 33 -14 84 -34 113 -45 28 -11
52 -24 52 -28 0 -4 6 -8 14 -8 14 0 177 -64 186 -73 3 -3 11 -6 19 -8 8 -2 32
-12 54 -23 23 -10 47 -19 54 -19 7 0 13 -4 13 -8 0 -4 10 -8 22 -9 11 -1 24
-7 28 -13 4 -7 10 -11 14 -10 8 2 95 -32 184 -72 34 -15 65 -28 68 -28 2 0 21
-7 42 -16 20 -10 42 -18 47 -19 6 -2 40 -17 78 -34 37 -17 72 -31 77 -31 6 0
10 -4 10 -8 0 -4 10 -8 22 -9 11 -1 24 -6 27 -10 3 -4 13 -9 21 -11 8 -1 24
-7 35 -12 78 -36 261 -110 272 -110 7 0 13 -5 13 -12 0 -6 3 -8 7 -5 3 4 17 0
30 -8 13 -9 23 -13 23 -9 0 3 11 -1 25 -10 13 -9 31 -16 40 -16 8 0 15 -4 15
-10 0 -5 3 -9 8 -8 7 3 92 -30 179 -69 55 -24 105 -45 113 -48 30 -7 80 -31
80 -37 0 -4 3 -7 7 -6 12 3 133 -44 133 -51 0 -4 8 -7 18 -8 31 -3 133 -53
127 -63 -3 -6 -10 -10 -15 -10 -4 0 -61 -25 -126 -56 -66 -31 -225 -105 -354
-164 -129 -59 -280 -129 -335 -155 -55 -26 -149 -70 -210 -97 -132 -60 -351
-162 -494 -229 -57 -27 -109 -49 -116 -49 -16 0 -25 176 -25 478 0 233 -8 298
-49 395 -46 107 -131 204 -236 268 -22 14 -146 69 -275 123 -129 54 -248 104
-265 111 -131 58 -228 95 -247 95 -34 0 -87 -36 -99 -68 -7 -18 -10 -210 -10
-567 1 -630 8 -970 23 -1040 20 -97 82 -208 159 -285 76 -76 90 -83 619 -337
85 -41 258 -125 385 -186 217 -106 233 -112 301 -115 81 -5 111 3 234 61 47
21 110 51 140 65 30 13 177 81 325 150 343 159 410 189 465 214 45 20 271 125
385 178 146 68 221 102 230 103 6 1 12 4 15 7 6 7 159 80 166 80 4 0 48 21
271 126 84 40 140 92 174 160 l24 49 0 735 0 735 -22 40 c-57 105 -93 126
-493 290 -102 42 -198 83 -215 92 -16 8 -37 16 -46 18 -8 2 -35 12 -60 24 -24
11 -84 36 -134 57 -49 20 -108 44 -130 54 -22 10 -50 21 -62 24 -13 4 -23 12
-23 17 0 6 -4 8 -8 5 -5 -3 -44 11 -88 30 -43 18 -84 34 -91 34 -7 0 -13 5
-13 10 0 6 -3 9 -7 8 -9 -3 -125 42 -133 51 -3 3 -12 7 -20 9 -8 2 -33 11 -55
21 -22 10 -67 29 -100 42 -33 13 -63 28 -67 34 -4 5 -8 7 -8 3 0 -5 -128 46
-325 131 -11 5 -42 18 -70 29 -27 12 -68 29 -90 38 -22 10 -42 18 -45 19 -12
4 -49 20 -95 40 -27 12 -88 37 -135 56 -47 18 -88 38 -92 44 -4 5 -8 6 -8 1 0
-4 -11 -1 -25 8 -13 9 -29 16 -34 16 -11 0 -109 41 -154 65 -16 8 -34 15 -40
15 -6 0 -31 9 -56 21 -56 25 -56 25 -211 90 -69 28 -131 56 -137 61 -7 6 -13
7 -13 4 0 -4 -12 -1 -27 7 -57 29 -124 57 -138 57 -8 0 -15 5 -15 12 0 6 -2 9
-6 6 -5 -5 -95 30 -206 81 -26 11 -49 21 -53 21 -3 0 -24 9 -48 19 -23 11 -82
36 -132 56 -49 21 -103 43 -120 50 -301 133 -367 151 -421 115z"/>
</g>
</svg>
