<?xml version="1.0" standalone="no"?>
<!DOCTYPE svg PUBLIC "-//W3C//DTD SVG 20010904//EN"
 "http://www.w3.org/TR/2001/REC-SVG-20010904/DTD/svg10.dtd">
<svg version="1.0" xmlns="http://www.w3.org/2000/svg"
 width="591.000000pt" height="591.000000pt" viewBox="0 0 591.000000 591.000000"
 preserveAspectRatio="xMidYMid meet">

<g transform="translate(0.000000,591.000000) scale(0.100000,-0.100000)"
fill="#000000" stroke="none">
<path d="M1295 2611 c-3 -5 -4 -220 -2 -478 3 -520 2 -509 72 -605 51 -70 114
-103 195 -103 73 0 30 -17 594 245 l308 144 -6 156 c-4 85 -9 163 -12 173 -3
10 -15 17 -30 17 -13 0 -24 5 -24 11 0 6 -9 8 -20 4 -14 -4 -20 -2 -20 8 0 10
-14 18 -40 22 -22 4 -46 12 -53 18 -6 7 -24 18 -39 26 -16 8 -28 18 -28 23 0
4 -10 8 -22 8 -26 0 -82 17 -121 36 -16 8 -33 14 -39 14 -5 0 -16 6 -23 13
-37 33 -47 37 -80 37 -19 0 -35 3 -35 8 0 13 -139 72 -170 72 -9 0 -24 9 -33
21 -11 12 -25 18 -34 15 -17 -7 -83 21 -83 35 0 5 -15 9 -33 9 -20 0 -39 8
-50 20 -9 11 -28 20 -41 20 -35 0 -56 10 -56 26 0 16 -65 20 -75 5z"/>
<path d="M4150 2587 c-29 -13 -283 -132 -319 -150 -13 -7 -26 -20 -29 -29 -2
-10 -7 -18 -11 -18 -3 0 -4 -262 -1 -582 3 -321 2 -600 -1 -620 -5 -30 -3 -38
9 -38 34 0 1251 564 1295 601 20 16 48 55 64 87 38 77 40 193 4 262 -29 56
-85 116 -131 140 -30 15 -591 251 -735 308 -27 11 -66 27 -85 35 -27 11 -41
12 -60 4z"/>
</g>
</svg>
